HIERARCHY
ROOT Hips
{
    OFFSET 0.0 0.0 0.0
    CHANNELS 6 Xposition Yposition Zposition Zrotation Xrotation Yrotation
    JOINT Spine
    {
        OFFSET 0.0 24.003020871154447 0.0
        CHANNELS 3 Zrotation Xrotation Yrotation
        JOINT Chest
        {
            OFFSET 0.0 24.003020871154447 0.0
            CHANNELS 3 Zrotation Xrotation Yrotation
            JOINT Head
            {
                OFFSET 0.0 13.142721840190227 0.0
                CHANNELS 3 Zrotation Xrotation Yrotation
            }
            JOINT LeftUpperArm
            {
                OFFSET 13.380597966711289 0.0 0.0
                CHANNELS 3 Zrotation Xrotation Yrotation
                JOINT LeftLowerArm
                {
                    OFFSET 23.194551698176113 0.0 0.0
                    CHANNELS 3 Zrotation Xrotation Yrotation
                    JOINT LeftHand
                    {
                        OFFSET 18.20849351733426 0.0 0.0
                        CHANNELS 3 Zrotation Xrotation Yrotation
                    }
                    End Site
                    {
                    OFFSET 7.371514576908149 0.0 0.0
                    }
                }
            }
            JOINT RightUpperArm
            {
                OFFSET -13.380597966711289 0.0 0.0
                CHANNELS 3 Zrotation Xrotation Yrotation
                JOINT RightLowerArm
                {
                    OFFSET 23.194551698176113 0.0 0.0
                    CHANNELS 3 Zrotation Xrotation Yrotation
                    JOINT RightHand
                    {
                        OFFSET 18.20849351733426 0.0 0.0
                        CHANNELS 3 Zrotation Xrotation Yrotation
                    }
                    End Site
                    {
                    OFFSET 7.371514576908149 0.0 0.0
                    }
                }
            }
        }
    }
    JOINT LeftUpperLeg
    {
        OFFSET 8.958110179177737 0.0 0.0
        CHANNELS 3 Zrotation Xrotation Yrotation
        JOINT LeftLowerLeg
        {
            OFFSET 37.758569956614494 0.0 0.0
            CHANNELS 3 Zrotation Xrotation Yrotation
            JOINT LeftFootAnkle
            {
                OFFSET 36.358075242534284 0.0 0.0
                CHANNELS 3 Zrotation Xrotation Yrotation
                End Site
                {
                OFFSET 7.669964643802583 0.0 0.0
                }
            }
        }
    }
    JOINT RightUpperLeg
    {
        OFFSET -8.958110179177737 0.0 0.0
        CHANNELS 3 Zrotation Xrotation Yrotation
        JOINT RightLowerLeg
        {
            OFFSET 37.758569956614494 0.0 0.0
            CHANNELS 3 Zrotation Xrotation Yrotation
            JOINT RightFootAnkle
            {
                OFFSET 36.358075242534284 0.0 0.0
                CHANNELS 3 Zrotation Xrotation Yrotation
                End Site
                {
                OFFSET 7.669964643802583 0.0 0.0
                }
            }
        }
    }
}
MOTION
Frames: 8
Frame Time: 0.03333333333333333
-0.0851563672733389 -0.2347884631904945 0.09151588561445577 -4.8978719683660845 1.6578710939160828 21.974926470058495 -3.2949336199641897 1.401445612100296 -11.988059658719516 -2.9241789697909204 2.0794893892493733 -12.05655483099225 29.392529863603013 30.52946013949143 -1.3331190236338224 98.23024581824069 8.991117586116244 -175.31025330491403 12.233769588687792 -17.52244803345988 35.75983752310207 -95.52374093737241 18.902530458334823 179.74755950470944 81.76219887900386 30.156074364799245 -157.82160660746746 -122.24187690648228 -0.9146828126258777 89.42310341484053 -2.2676896488382523 -27.44028223538122 92.00830890212505 -91.50430075865609 -63.98381731563946 -5.964271697029706 -141.01575001679737 -61.5667347595447 180.0 -141.89661128686495 50.571865578648776 180.0 141.50750157640135 -73.70294830069885 -143.99275842708678 -144.4541078499712 -21.05991298464423 180.0 -99.34535542556321 31.89890499683112 180.0
-0.0847026644135305 -0.23201599196962572 0.10303731330570107 -5.113237270580563 2.493718348441818 22.646602836775557 -3.41130959314882 1.3801111847202772 -11.79313036117467 -3.049378657186561 2.073172465059735 -11.861931192002507 30.635069287036277 30.32101615713858 -2.692697612947479 95.75262964715199 11.89657643123306 -171.61385392552 0.4969312979411025 -0.8047893223586121 31.695468961887627 -88.54344643459295 34.24435253390365 158.83041491689212 81.2192862874028 28.322219450442486 -156.3726857261796 -116.6363996645616 1.3156779550598092 90.6598010574427 10.32857750070708 -16.899081418437767 91.82281950592026 -90.59953748228388 -63.15560609486217 -5.3390157663353355 -139.60314002906438 -58.987989670106394 180.0 -144.39010938699022 52.13831565673527 180.0 143.8985141835076 -72.55326768742106 -141.42967427644535 -144.29106440823836 -22.503483473165552 180.0 -99.79641856476253 34.64788514233543 180.0
-0.08211095239270973 -0.2373805087971769 0.10624103617797077 -5.315339650624334 2.637953101990833 22.865488145886317 -3.363260355855022 1.402047868051835 -12.188601354892748 -2.9834321880313914 2.1050581228855356 -12.25793816916087 30.47294779031424 30.395059753327146 -2.130442445575698 94.09808976553091 15.600471032053784 -171.29427870455785 -3.29740941437346 5.802272224111065 29.6787315076275 -90.12583199239909 33.14721453277894 158.28958410145705 80.23074996076747 29.36938863884268 -155.3287005566423 -111.09409935678191 3.562166827367915 91.37295642825609 7.544649601732169 -6.56704468762212 92.34931941144218 -92.63835592319678 -63.13380557067573 -7.333077768401382 -141.4042143058537 -54.51523772260659 180.0 -141.0969736457073 48.51343538456296 180.0 140.61541442125022 -72.59398066361034 -145.41091349255777 -145.12214351849863 -24.497590122868253 180.0 -96.18780573032642 30.726363463283835 180.0
-0.07958462980901954 -0.22927997378047235 0.11850236650018556 -6.512044748652083 5.295495660391799 22.765177027325795 -2.424518705805799 1.5294577651555274 -14.088982148693052 -1.9725645357567931 2.0903072551885886 -14.15042064428587 28.16111462580867 27.9878107498245 2.2304242418951383 95.0825244388691 10.749804462849157 -169.9962247589605 -3.296126499815922 8.130734549804224 22.156355860646606 -106.07145371575257 33.77712737264238 158.53447682903723 77.0338516376076 31.10729235970257 -149.19053873228427 -114.92016767090956 12.091358556271928 95.55868402709935 0.8692077188876108 8.137887679034602 92.06561085720999 -99.94857324471266 -64.00009326438635 -15.214082479080519 -141.8364592407181 -53.21059608458806 180.0 -137.1394422402489 41.750850917826455 180.0 141.22387616689343 -70.17837679280659 -144.6835005789693 -146.37367415001845 -27.189629725966157 180.0 -95.89740083208866 24.3770808913325 180.0
-0.07127721725774516 -0.21770463831155196 0.11662467586659797 -7.5002752136426265 7.379323402070603 22.266588277951506 -1.535328640021192 1.5679928365026015 -15.629037759917898 -1.051764269879824 1.932710736877051 -15.67443904554301 25.4227596999112 28.19683288926077 7.0931305975546 97.48357354265598 0.032504350721928574 -173.80463938329117 2.7041516636368677 -7.9797099759699535 18.789798891167266 -138.13484272623134 29.39109255839736 168.16721639044303 75.75703798016043 34.97284571034418 -147.39522922043844 -113.50524674765904 15.466757377188678 96.61586002973993 -6.081176219881004 33.698330922860386 88.42862694170276 -109.24418077870672 -63.83552043902564 -25.01716909139522 -143.3992130067481 -47.28103041269945 180.0 -130.40905524486325 37.71166762465824 180.0 148.8933530390556 -70.1393788103716 -135.73360625459117 -146.65254704500984 -23.096166251409738 180.0 -97.75150314592028 32.85010413922473 180.0
-0.06667056107096518 -0.20844864124587079 0.1226043247656998 -9.155119436098985 10.959392305172052 22.11979973737938 -0.22604479412564296 1.5746094516308615 -16.60556248214399 0.23407434986217338 1.5745816332789204 -16.618097905334118 23.58223402301532 27.306387062322607 11.604501019918976 105.96823204873436 -30.330526152891213 -168.4457534060497 3.892678744081904 -17.149807963955364 12.994176176459087 -136.65766511538533 41.050451480056836 156.00442733836744 71.06614794579274 37.12048881492735 -142.240649197928 -102.3068054954832 22.100273990964133 94.69220132400731 -20.548151166166107 51.6583182000541 104.77258714220633 -121.13029836462093 -63.06794235995915 -37.47078796706225 -146.28471373579282 -50.14106285909216 180.0 -129.53756482004354 38.55211187300498 180.0 160.1542896654591 -63.20130018170065 -120.63459361594383 -146.61046500692865 -23.4886435398548 180.0 -99.43085657431271 25.89655177437595 180.0
-0.06543562877126292 -0.203679189287678 0.1395405607599646 -10.700614082945641 15.070329445775942 20.911842830721472 0.8243140539713001 1.5233676286468234 -17.17452421209244 1.235590886706017 1.2091595998267195 -17.154718076965892 22.501731807569602 25.01961793735138 15.6079012685687 127.4405783160355 -54.470258648346174 -149.87147211395302 8.43660571569126 -32.78459307774531 15.31843512767806 -123.36970565664993 47.21216931597321 136.71037510449213 74.22858354684058 34.08025928261584 -138.4052386041007 -95.34305568164179 30.315834570898076 92.70283256727268 -18.971048198656845 50.335234553992635 97.24339896615353 -127.28222040516832 -63.57580534523684 -45.06940040620926 -148.3739691193689 -48.54045467680463 180.0 -130.28337988790395 39.00632472654674 180.0 161.77386060474856 -57.893271423682094 -117.73060558605091 -146.8611716800087 -27.49824958613281 180.0 -103.6007822487263 13.812575148300674 180.0
-0.060383208172809844 -0.1968951448649658 0.14784595732129982 -11.54258557611327 16.81937695924516 20.692493994021294 1.3404497248400533 1.532487068447362 -16.836928146268885 1.7239689237327305 1.074162688621796 -16.799381979154262 22.21135690850683 23.125081962153313 15.865888075987273 131.32884823929408 -57.920395531467655 -146.65291265524942 1.7437743750833026 -5.456664848324828 17.752480169889658 -86.04138917677143 56.052406736656 91.79886108657026 80.41771405641953 28.404486368530407 -138.76478845780315 -101.59973385377836 31.156943658343923 96.06215729088791 -9.732372690097794 38.76028326291158 90.90294494343361 -135.10676157488854 -62.80226632609359 -52.67866931872108 -149.72638178636 -47.50208218342886 180.0 -131.13792325886453 39.90331734028095 180.0 164.8958234506613 -57.195701340223756 -113.97902411975744 -146.28142986837568 -22.74231188533026 180.0 -106.10245045370927 26.73108056813069 180.0
